<svg xmlns="http://www.w3.org/2000/svg" width="52" height="52" fill="none" viewBox="0 0 512 512"><path fill="#000" d="m209.275 284.909-55.866 32.667v101.175a8.872 8.872 0 0 0-3.893 7.356 8.877 8.877 0 0 0 2.948 6.615l50.831-88.468c-3.031-2.738-3.862-7.325-1.744-11.014 2.429-4.243 7.818-5.695 12.033-3.25 4.215 2.445 5.658 7.869 3.229 12.111a8.8 8.8 0 0 1-10.372 4.003l-50.81 88.436a8.51 8.51 0 0 0 2.699.46c4.631 0 8.389-3.616 8.742-8.182l87.127-50.629v-65.197c-19.84 12.707-45.9-2.456-44.913-26.051l-.011-.032ZM257.812 311.222v64.935l87.033 50.577c.322 4.598 4.09 8.245 8.742 8.245.976 0 1.9-.178 2.772-.481l-50.727-88.457a8.784 8.784 0 0 1-10.362-3.992c-2.429-4.243-.986-9.666 3.219-12.111 4.215-2.446 9.603-.993 12.033 3.239 2.118 3.699 1.297 8.297-1.745 11.035l50.717 88.447a8.841 8.841 0 0 0 2.897-6.552 8.86 8.86 0 0 0-3.8-7.283V317.67l-56.095-32.447c.82 23.428-24.979 38.393-44.684 26.009v-.01ZM349.787 264.72c-4.869 0-8.804-3.97-8.804-8.861 0-4.89 3.945-8.861 8.804-8.861 4.246 0 7.776 3.02 8.617 7.043H461c-.841-4.023-4.371-7.043-8.617-7.043-1.599 0-3.073.459-4.371 1.212l-87.594-50.901-56.053 32.614c20.764 10.982 20.712 41.214-.062 52.134l56.032 32.415 87.667-50.943c1.287.753 2.772 1.212 4.37 1.212 4.247 0 7.777-3.02 8.618-7.043H358.394c-.841 4.023-4.371 7.043-8.618 7.043l.011-.021ZM254.157 200.517v-64.956l-87.127-50.64c-.477-4.441-4.173-7.921-8.71-7.921-.903 0-1.765.146-2.585.407l50.623 88.281a8.782 8.782 0 0 1 10.361 3.991c2.43 4.243.987 9.666-3.218 12.112-4.215 2.445-9.604.992-12.033-3.24-2.118-3.699-1.298-8.297 1.744-11.035l-50.665-88.353a8.89 8.89 0 0 0-3.042 6.698 8.872 8.872 0 0 0 3.894 7.357v100.903l56.053 32.52c-.935-23.522 24.948-38.58 44.705-26.135v.011ZM302.683 226.673l55.908-32.531V93.135c1.038-.722 1.962-1.662 2.637-2.843 2.128-3.71 1.225-8.276-1.848-11.004l-50.675 88.186c3.031 2.738 3.862 7.326 1.744 11.015-2.429 4.242-7.818 5.695-12.033 3.249-4.215-2.445-5.658-7.868-3.229-12.111a8.797 8.797 0 0 1 10.372-4.002l50.665-88.134c-3.852-1.222-8.15.282-10.247 3.95a8.946 8.946 0 0 0-1.122 3.543l-87.043 50.587v65.176c19.788-12.655 45.764 2.424 44.882 25.936l-.011-.01ZM207.51 229.734l-55.907-32.446-87.615 50.911c-1.287-.752-2.772-1.212-4.37-1.212-4.247 0-7.777 3.02-8.618 7.043h102.596c.841-4.023 4.371-7.043 8.617-7.043 4.869 0 8.804 3.971 8.804 8.861 0 4.891-3.945 8.862-8.804 8.862-4.246 0-7.776-3.02-8.617-7.043H51c.841 4.023 4.37 7.043 8.617 7.043 1.599 0 3.073-.46 4.371-1.212l87.594 50.901 55.887-32.677c-20.609-11.014-20.557-41.057.052-52.009l-.011.021ZM256.078 285.86c16.445 0 29.776-13.418 29.776-29.97s-13.331-29.97-29.776-29.97-29.776 13.418-29.776 29.97 13.331 29.97 29.776 29.97Z"/></svg>